<svg xmlns="http://www.w3.org/2000/svg" version="1.1" xmlns:xlink="http://www.w3.org/1999/xlink" xmlns:svgjs="http://svgjs.com/svgjs" width="1440" height="750" preserveAspectRatio="none" viewBox="0 0 1440 750"><g mask="url(&quot;#SvgjsMask1488&quot;)" fill="none"><rect width="1440" height="750" x="0" y="0" fill="rgba(27, 27, 27, 1)"></rect><path d="M28.52 664.78L94.34 702.78L94.34 778.78L28.52 816.78L-37.3 778.78L-37.3 702.78zM160.16 436.78L225.98 474.78L225.98 550.78L160.16 588.78L94.34 550.78L94.34 474.78zM423.44 208.78L489.26 246.78L489.26 322.78L423.44 360.78L357.62 322.78L357.62 246.78zM884.18 550.78L950 588.78L950 664.78L884.18 702.78L818.36 664.78L818.36 588.78zM950 -19.22L1015.82 18.78L1015.82 94.78L950 132.78L884.18 94.78L884.18 18.78zM1279.1 322.78L1344.92 360.78L1344.92 436.78L1279.1 474.78L1213.28 436.78L1213.28 360.78zM1344.92 -19.22L1410.74 18.78L1410.74 94.78L1344.92 132.78L1279.1 94.78L1279.1 18.78z" stroke="rgba(209, 213, 219, 0.06274509803921569)" stroke-width="2"></path><path d="M20.92 664.78 a7.6 7.6 0 1 0 15.2 0 a7.6 7.6 0 1 0 -15.2 0zM86.74 702.78 a7.6 7.6 0 1 0 15.2 0 a7.6 7.6 0 1 0 -15.2 0zM86.74 778.78 a7.6 7.6 0 1 0 15.2 0 a7.6 7.6 0 1 0 -15.2 0zM20.92 816.78 a7.6 7.6 0 1 0 15.2 0 a7.6 7.6 0 1 0 -15.2 0zM-44.9 778.78 a7.6 7.6 0 1 0 15.2 0 a7.6 7.6 0 1 0 -15.2 0zM-44.9 702.78 a7.6 7.6 0 1 0 15.2 0 a7.6 7.6 0 1 0 -15.2 0zM152.56 436.78 a7.6 7.6 0 1 0 15.2 0 a7.6 7.6 0 1 0 -15.2 0zM218.38 474.78 a7.6 7.6 0 1 0 15.2 0 a7.6 7.6 0 1 0 -15.2 0zM218.38 550.78 a7.6 7.6 0 1 0 15.2 0 a7.6 7.6 0 1 0 -15.2 0zM152.56 588.78 a7.6 7.6 0 1 0 15.2 0 a7.6 7.6 0 1 0 -15.2 0zM86.74 550.78 a7.6 7.6 0 1 0 15.2 0 a7.6 7.6 0 1 0 -15.2 0zM86.74 474.78 a7.6 7.6 0 1 0 15.2 0 a7.6 7.6 0 1 0 -15.2 0zM415.84 208.78 a7.6 7.6 0 1 0 15.2 0 a7.6 7.6 0 1 0 -15.2 0zM481.66 246.78 a7.6 7.6 0 1 0 15.2 0 a7.6 7.6 0 1 0 -15.2 0zM481.66 322.78 a7.6 7.6 0 1 0 15.2 0 a7.6 7.6 0 1 0 -15.2 0zM415.84 360.78 a7.6 7.6 0 1 0 15.2 0 a7.6 7.6 0 1 0 -15.2 0zM350.02 322.78 a7.6 7.6 0 1 0 15.2 0 a7.6 7.6 0 1 0 -15.2 0zM350.02 246.78 a7.6 7.6 0 1 0 15.2 0 a7.6 7.6 0 1 0 -15.2 0zM876.58 550.78 a7.6 7.6 0 1 0 15.2 0 a7.6 7.6 0 1 0 -15.2 0zM942.4 588.78 a7.6 7.6 0 1 0 15.2 0 a7.6 7.6 0 1 0 -15.2 0zM942.4 664.78 a7.6 7.6 0 1 0 15.2 0 a7.6 7.6 0 1 0 -15.2 0zM876.58 702.78 a7.6 7.6 0 1 0 15.2 0 a7.6 7.6 0 1 0 -15.2 0zM810.76 664.78 a7.6 7.6 0 1 0 15.2 0 a7.6 7.6 0 1 0 -15.2 0zM810.76 588.78 a7.6 7.6 0 1 0 15.2 0 a7.6 7.6 0 1 0 -15.2 0zM942.4 -19.22 a7.6 7.6 0 1 0 15.2 0 a7.6 7.6 0 1 0 -15.2 0zM1008.22 18.78 a7.6 7.6 0 1 0 15.2 0 a7.6 7.6 0 1 0 -15.2 0zM1008.22 94.78 a7.6 7.6 0 1 0 15.2 0 a7.6 7.6 0 1 0 -15.2 0zM942.4 132.78 a7.6 7.6 0 1 0 15.2 0 a7.6 7.6 0 1 0 -15.2 0zM876.58 94.78 a7.6 7.6 0 1 0 15.2 0 a7.6 7.6 0 1 0 -15.2 0zM876.58 18.78 a7.6 7.6 0 1 0 15.2 0 a7.6 7.6 0 1 0 -15.2 0zM1271.5 322.78 a7.6 7.6 0 1 0 15.2 0 a7.6 7.6 0 1 0 -15.2 0zM1337.32 360.78 a7.6 7.6 0 1 0 15.2 0 a7.6 7.6 0 1 0 -15.2 0zM1337.32 436.78 a7.6 7.6 0 1 0 15.2 0 a7.6 7.6 0 1 0 -15.2 0zM1271.5 474.78 a7.6 7.6 0 1 0 15.2 0 a7.6 7.6 0 1 0 -15.2 0zM1205.68 436.78 a7.6 7.6 0 1 0 15.2 0 a7.6 7.6 0 1 0 -15.2 0zM1205.68 360.78 a7.6 7.6 0 1 0 15.2 0 a7.6 7.6 0 1 0 -15.2 0zM1337.32 -19.22 a7.6 7.6 0 1 0 15.2 0 a7.6 7.6 0 1 0 -15.2 0zM1403.14 18.78 a7.6 7.6 0 1 0 15.2 0 a7.6 7.6 0 1 0 -15.2 0zM1403.14 94.78 a7.6 7.6 0 1 0 15.2 0 a7.6 7.6 0 1 0 -15.2 0zM1337.32 132.78 a7.6 7.6 0 1 0 15.2 0 a7.6 7.6 0 1 0 -15.2 0zM1271.5 94.78 a7.6 7.6 0 1 0 15.2 0 a7.6 7.6 0 1 0 -15.2 0zM1271.5 18.78 a7.6 7.6 0 1 0 15.2 0 a7.6 7.6 0 1 0 -15.2 0z" fill="rgba(209, 213, 219, 0.06274509803921569)"></path><path d="M26.31 -142.07L177.87 -54.57L177.87 120.43L26.31 207.93L-125.25 120.43L-125.25 -54.57zM177.87 645.43L329.43 732.93L329.43 907.93L177.87 995.43L26.31 907.93L26.31 732.93zM784.1 645.43L935.66 732.93L935.66 907.93L784.1 995.43L632.54 907.93L632.54 732.93zM1087.22 120.43L1238.78 207.93L1238.78 382.93L1087.22 470.43L935.66 382.93L935.66 207.93zM935.66 382.93L1087.22 470.43L1087.22 645.43L935.66 732.93L784.1 645.43L784.1 470.43zM1087.22 645.43L1238.78 732.93L1238.78 907.93L1087.22 995.43L935.66 907.93L935.66 732.93zM1390.34 120.43L1541.9 207.93L1541.9 382.93L1390.34 470.43L1238.78 382.93L1238.78 207.93zM1390.34 645.43L1541.9 732.93L1541.9 907.93L1390.34 995.43L1238.78 907.93L1238.78 732.93z" stroke="rgba(209, 213, 219, 0.4392156862745098)" stroke-width="2"></path></g><defs><mask id="SvgjsMask1488"><rect width="1440" height="750" fill="#ffffff"></rect></mask></defs></svg>