<svg xmlns="http://www.w3.org/2000/svg" version="1.1" xmlns:xlink="http://www.w3.org/1999/xlink" xmlns:svgjs="http://svgjs.com/svgjs" width="1440" height="591" preserveAspectRatio="none" viewBox="0 0 1440 591"><g mask="url(&quot;#SvgjsMask1029&quot;)" fill="none"><rect width="1440" height="591" x="0" y="0" fill="rgba(27, 27, 27, 1)"></rect><path d="M540.39 702.85C655.61 688.01 610.06 433.77 912.44 424.45 1214.83 415.13 1464.61 236.8 1656.55 235.33" stroke="rgba(248, 183, 0, 0.45)" stroke-width="2"></path><path d="M241.64 601.75C390.75 568.11 442.73 180.29 678.19 173.63 913.65 166.97 896.46 247.51 1114.73 247.5 1333.01 247.5 1440.59 173.89 1551.28 173.63" stroke="rgba(248, 183, 0, 0.45)" stroke-width="2"></path><path d="M528.21 670.66C623.5 669.45 602.74 565.75 893 560.05 1183.25 554.35 1427.46 286.93 1622.57 282.28" stroke="rgba(248, 183, 0, 0.45)" stroke-width="2"></path><path d="M446.72 693.63C637.36 659.86 733.7 186.74 1031.34 185.73 1328.97 184.72 1453.67 462.05 1615.95 469.41" stroke="rgba(248, 183, 0, 0.45)" stroke-width="2"></path><path d="M283.6 593.32C470.83 565.08 569.39 120.75 873.63 118.47 1177.87 116.19 1309.65 293.87 1463.66 295.77" stroke="rgba(248, 183, 0, 0.45)" stroke-width="2"></path></g><defs><mask id="SvgjsMask1029"><rect width="1440" height="591" fill="#ffffff"></rect></mask></defs></svg>