<svg xmlns="http://www.w3.org/2000/svg" version="1.1" xmlns:xlink="http://www.w3.org/1999/xlink" xmlns:svgjs="http://svgjs.com/svgjs" width="1440" height="560" preserveAspectRatio="none" viewBox="0 0 1440 560"><g mask="url(&quot;#SvgjsMask1015&quot;)" fill="none"><rect width="1440" height="560" x="0" y="0" fill="rgba(27, 27, 27, 1)"></rect><path d="M248.26 604.51C444.47 585.18 567.05 170.08 904.92 167.8 1242.8 165.52 1394.81 284.94 1561.59 285.4" stroke="rgba(248, 183, 0, 0.45)" stroke-width="2"></path><path d="M546.36 570.03C657.59 547.56 601.69 274.25 879.26 261.45 1156.83 248.65 1372.69 83.81 1545.06 82.25" stroke="rgba(248, 183, 0, 0.45)" stroke-width="2"></path><path d="M596.9 584.05C745.83 574.99 838.3 306.53 1121.01 298.52 1403.72 290.51 1509.5 159.72 1645.12 158.52" stroke="rgba(248, 183, 0, 0.45)" stroke-width="2"></path><path d="M719.17 645.53C825.75 591.7 775.44 244.2 974.77 242.08 1174.09 239.96 1350.1 424.07 1485.96 426.88" stroke="rgba(248, 183, 0, 0.45)" stroke-width="2"></path><path d="M836.86 626.21C928.23 612.65 907.2 395.88 1125.56 395.64 1343.91 395.4 1555.64 512.64 1702.95 513.24" stroke="rgba(248, 183, 0, 0.45)" stroke-width="2"></path></g><defs><mask id="SvgjsMask1015"><rect width="1440" height="560" fill="#ffffff"></rect></mask></defs></svg>