<svg xmlns="http://www.w3.org/2000/svg" version="1.1" xmlns:xlink="http://www.w3.org/1999/xlink" xmlns:svgjs="http://svgjs.com/svgjs" width="1440" height="750" preserveAspectRatio="none" viewBox="0 0 1440 750"><g mask="url(&quot;#SvgjsMask1563&quot;)" fill="none"><rect width="1440" height="750" x="0" y="0" fill="rgba(27, 27, 27, 1)"></rect><path d="M41.73 432.09L107.55 470.09L107.55 546.09L41.73 584.09L-24.09 546.09L-24.09 470.09zM41.73 660.09L107.55 698.09L107.55 774.09L41.73 812.09L-24.09 774.09L-24.09 698.09zM107.55 774.09L173.37 812.09L173.37 888.09L107.55 926.09L41.73 888.09L41.73 812.09zM173.37 432.09L239.19 470.09L239.19 546.09L173.37 584.09L107.55 546.09L107.55 470.09zM173.37 660.09L239.19 698.09L239.19 774.09L173.37 812.09L107.55 774.09L107.55 698.09zM305.01 -23.91L370.83 14.09L370.83 90.09L305.01 128.09L239.19 90.09L239.19 14.09zM370.83 546.09L436.65 584.09L436.65 660.09L370.83 698.09L305.01 660.09L305.01 584.09zM436.65 -23.91L502.47 14.09L502.47 90.09L436.65 128.09L370.83 90.09L370.83 14.09zM502.47 546.09L568.29 584.09L568.29 660.09L502.47 698.09L436.65 660.09L436.65 584.09zM634.11 90.09L699.93 128.09L699.93 204.09L634.11 242.09L568.29 204.09L568.29 128.09zM568.29 204.09L634.11 242.09L634.11 318.09L568.29 356.09L502.47 318.09L502.47 242.09zM634.11 774.09L699.93 812.09L699.93 888.09L634.11 926.09L568.29 888.09L568.29 812.09zM765.75 318.09L831.57 356.09L831.57 432.09L765.75 470.09L699.93 432.09L699.93 356.09zM765.75 546.09L831.57 584.09L831.57 660.09L765.75 698.09L699.93 660.09L699.93 584.09zM897.39 546.09L963.21 584.09L963.21 660.09L897.39 698.09L831.57 660.09L831.57 584.09zM897.39 774.09L963.21 812.09L963.21 888.09L897.39 926.09L831.57 888.09L831.57 812.09zM963.21 432.09L1029.03 470.09L1029.03 546.09L963.21 584.09L897.39 546.09L897.39 470.09zM1160.67 90.09L1226.49 128.09L1226.49 204.09L1160.67 242.09L1094.85 204.09L1094.85 128.09zM1094.85 204.09L1160.67 242.09L1160.67 318.09L1094.85 356.09L1029.03 318.09L1029.03 242.09zM1226.49 -23.91L1292.31 14.09L1292.31 90.09L1226.49 128.09L1160.67 90.09L1160.67 14.09zM1292.31 90.09L1358.13 128.09L1358.13 204.09L1292.31 242.09L1226.49 204.09L1226.49 128.09zM1292.31 318.09L1358.13 356.09L1358.13 432.09L1292.31 470.09L1226.49 432.09L1226.49 356.09zM1423.95 318.09L1489.77 356.09L1489.77 432.09L1423.95 470.09L1358.13 432.09L1358.13 356.09zM1358.13 432.09L1423.95 470.09L1423.95 546.09L1358.13 584.09L1292.31 546.09L1292.31 470.09z" stroke="rgba(209, 213, 219, 0.06274509803921569)" stroke-width="2"></path><path d="M34.13 432.09 a7.6 7.6 0 1 0 15.2 0 a7.6 7.6 0 1 0 -15.2 0zM99.95 470.09 a7.6 7.6 0 1 0 15.2 0 a7.6 7.6 0 1 0 -15.2 0zM99.95 546.09 a7.6 7.6 0 1 0 15.2 0 a7.6 7.6 0 1 0 -15.2 0zM34.13 584.09 a7.6 7.6 0 1 0 15.2 0 a7.6 7.6 0 1 0 -15.2 0zM-31.69 546.09 a7.6 7.6 0 1 0 15.2 0 a7.6 7.6 0 1 0 -15.2 0zM-31.69 470.09 a7.6 7.6 0 1 0 15.2 0 a7.6 7.6 0 1 0 -15.2 0zM34.13 660.09 a7.6 7.6 0 1 0 15.2 0 a7.6 7.6 0 1 0 -15.2 0zM99.95 698.09 a7.6 7.6 0 1 0 15.2 0 a7.6 7.6 0 1 0 -15.2 0zM99.95 774.09 a7.6 7.6 0 1 0 15.2 0 a7.6 7.6 0 1 0 -15.2 0zM34.13 812.09 a7.6 7.6 0 1 0 15.2 0 a7.6 7.6 0 1 0 -15.2 0zM-31.69 774.09 a7.6 7.6 0 1 0 15.2 0 a7.6 7.6 0 1 0 -15.2 0zM-31.69 698.09 a7.6 7.6 0 1 0 15.2 0 a7.6 7.6 0 1 0 -15.2 0zM165.77 812.09 a7.6 7.6 0 1 0 15.2 0 a7.6 7.6 0 1 0 -15.2 0zM165.77 888.09 a7.6 7.6 0 1 0 15.2 0 a7.6 7.6 0 1 0 -15.2 0zM99.95 926.09 a7.6 7.6 0 1 0 15.2 0 a7.6 7.6 0 1 0 -15.2 0zM34.13 888.09 a7.6 7.6 0 1 0 15.2 0 a7.6 7.6 0 1 0 -15.2 0zM165.77 432.09 a7.6 7.6 0 1 0 15.2 0 a7.6 7.6 0 1 0 -15.2 0zM231.59 470.09 a7.6 7.6 0 1 0 15.2 0 a7.6 7.6 0 1 0 -15.2 0zM231.59 546.09 a7.6 7.6 0 1 0 15.2 0 a7.6 7.6 0 1 0 -15.2 0zM165.77 584.09 a7.6 7.6 0 1 0 15.2 0 a7.6 7.6 0 1 0 -15.2 0zM165.77 660.09 a7.6 7.6 0 1 0 15.2 0 a7.6 7.6 0 1 0 -15.2 0zM231.59 698.09 a7.6 7.6 0 1 0 15.2 0 a7.6 7.6 0 1 0 -15.2 0zM231.59 774.09 a7.6 7.6 0 1 0 15.2 0 a7.6 7.6 0 1 0 -15.2 0zM297.41 -23.91 a7.6 7.6 0 1 0 15.2 0 a7.6 7.6 0 1 0 -15.2 0zM363.23 14.09 a7.6 7.6 0 1 0 15.2 0 a7.6 7.6 0 1 0 -15.2 0zM363.23 90.09 a7.6 7.6 0 1 0 15.2 0 a7.6 7.6 0 1 0 -15.2 0zM297.41 128.09 a7.6 7.6 0 1 0 15.2 0 a7.6 7.6 0 1 0 -15.2 0zM231.59 90.09 a7.6 7.6 0 1 0 15.2 0 a7.6 7.6 0 1 0 -15.2 0zM231.59 14.09 a7.6 7.6 0 1 0 15.2 0 a7.6 7.6 0 1 0 -15.2 0zM363.23 546.09 a7.6 7.6 0 1 0 15.2 0 a7.6 7.6 0 1 0 -15.2 0zM429.05 584.09 a7.6 7.6 0 1 0 15.2 0 a7.6 7.6 0 1 0 -15.2 0zM429.05 660.09 a7.6 7.6 0 1 0 15.2 0 a7.6 7.6 0 1 0 -15.2 0zM363.23 698.09 a7.6 7.6 0 1 0 15.2 0 a7.6 7.6 0 1 0 -15.2 0zM297.41 660.09 a7.6 7.6 0 1 0 15.2 0 a7.6 7.6 0 1 0 -15.2 0zM297.41 584.09 a7.6 7.6 0 1 0 15.2 0 a7.6 7.6 0 1 0 -15.2 0zM429.05 -23.91 a7.6 7.6 0 1 0 15.2 0 a7.6 7.6 0 1 0 -15.2 0zM494.87 14.09 a7.6 7.6 0 1 0 15.2 0 a7.6 7.6 0 1 0 -15.2 0zM494.87 90.09 a7.6 7.6 0 1 0 15.2 0 a7.6 7.6 0 1 0 -15.2 0zM429.05 128.09 a7.6 7.6 0 1 0 15.2 0 a7.6 7.6 0 1 0 -15.2 0zM494.87 546.09 a7.6 7.6 0 1 0 15.2 0 a7.6 7.6 0 1 0 -15.2 0zM560.69 584.09 a7.6 7.6 0 1 0 15.2 0 a7.6 7.6 0 1 0 -15.2 0zM560.69 660.09 a7.6 7.6 0 1 0 15.2 0 a7.6 7.6 0 1 0 -15.2 0zM494.87 698.09 a7.6 7.6 0 1 0 15.2 0 a7.6 7.6 0 1 0 -15.2 0zM626.51 90.09 a7.6 7.6 0 1 0 15.2 0 a7.6 7.6 0 1 0 -15.2 0zM692.33 128.09 a7.6 7.6 0 1 0 15.2 0 a7.6 7.6 0 1 0 -15.2 0zM692.33 204.09 a7.6 7.6 0 1 0 15.2 0 a7.6 7.6 0 1 0 -15.2 0zM626.51 242.09 a7.6 7.6 0 1 0 15.2 0 a7.6 7.6 0 1 0 -15.2 0zM560.69 204.09 a7.6 7.6 0 1 0 15.2 0 a7.6 7.6 0 1 0 -15.2 0zM560.69 128.09 a7.6 7.6 0 1 0 15.2 0 a7.6 7.6 0 1 0 -15.2 0zM626.51 318.09 a7.6 7.6 0 1 0 15.2 0 a7.6 7.6 0 1 0 -15.2 0zM560.69 356.09 a7.6 7.6 0 1 0 15.2 0 a7.6 7.6 0 1 0 -15.2 0zM494.87 318.09 a7.6 7.6 0 1 0 15.2 0 a7.6 7.6 0 1 0 -15.2 0zM494.87 242.09 a7.6 7.6 0 1 0 15.2 0 a7.6 7.6 0 1 0 -15.2 0zM626.51 774.09 a7.6 7.6 0 1 0 15.2 0 a7.6 7.6 0 1 0 -15.2 0zM692.33 812.09 a7.6 7.6 0 1 0 15.2 0 a7.6 7.6 0 1 0 -15.2 0zM692.33 888.09 a7.6 7.6 0 1 0 15.2 0 a7.6 7.6 0 1 0 -15.2 0zM626.51 926.09 a7.6 7.6 0 1 0 15.2 0 a7.6 7.6 0 1 0 -15.2 0zM560.69 888.09 a7.6 7.6 0 1 0 15.2 0 a7.6 7.6 0 1 0 -15.2 0zM560.69 812.09 a7.6 7.6 0 1 0 15.2 0 a7.6 7.6 0 1 0 -15.2 0zM758.15 318.09 a7.6 7.6 0 1 0 15.2 0 a7.6 7.6 0 1 0 -15.2 0zM823.97 356.09 a7.6 7.6 0 1 0 15.2 0 a7.6 7.6 0 1 0 -15.2 0zM823.97 432.09 a7.6 7.6 0 1 0 15.2 0 a7.6 7.6 0 1 0 -15.2 0zM758.15 470.09 a7.6 7.6 0 1 0 15.2 0 a7.6 7.6 0 1 0 -15.2 0zM692.33 432.09 a7.6 7.6 0 1 0 15.2 0 a7.6 7.6 0 1 0 -15.2 0zM692.33 356.09 a7.6 7.6 0 1 0 15.2 0 a7.6 7.6 0 1 0 -15.2 0zM758.15 546.09 a7.6 7.6 0 1 0 15.2 0 a7.6 7.6 0 1 0 -15.2 0zM823.97 584.09 a7.6 7.6 0 1 0 15.2 0 a7.6 7.6 0 1 0 -15.2 0zM823.97 660.09 a7.6 7.6 0 1 0 15.2 0 a7.6 7.6 0 1 0 -15.2 0zM758.15 698.09 a7.6 7.6 0 1 0 15.2 0 a7.6 7.6 0 1 0 -15.2 0zM692.33 660.09 a7.6 7.6 0 1 0 15.2 0 a7.6 7.6 0 1 0 -15.2 0zM692.33 584.09 a7.6 7.6 0 1 0 15.2 0 a7.6 7.6 0 1 0 -15.2 0zM889.79 546.09 a7.6 7.6 0 1 0 15.2 0 a7.6 7.6 0 1 0 -15.2 0zM955.61 584.09 a7.6 7.6 0 1 0 15.2 0 a7.6 7.6 0 1 0 -15.2 0zM955.61 660.09 a7.6 7.6 0 1 0 15.2 0 a7.6 7.6 0 1 0 -15.2 0zM889.79 698.09 a7.6 7.6 0 1 0 15.2 0 a7.6 7.6 0 1 0 -15.2 0zM889.79 774.09 a7.6 7.6 0 1 0 15.2 0 a7.6 7.6 0 1 0 -15.2 0zM955.61 812.09 a7.6 7.6 0 1 0 15.2 0 a7.6 7.6 0 1 0 -15.2 0zM955.61 888.09 a7.6 7.6 0 1 0 15.2 0 a7.6 7.6 0 1 0 -15.2 0zM889.79 926.09 a7.6 7.6 0 1 0 15.2 0 a7.6 7.6 0 1 0 -15.2 0zM823.97 888.09 a7.6 7.6 0 1 0 15.2 0 a7.6 7.6 0 1 0 -15.2 0zM823.97 812.09 a7.6 7.6 0 1 0 15.2 0 a7.6 7.6 0 1 0 -15.2 0zM955.61 432.09 a7.6 7.6 0 1 0 15.2 0 a7.6 7.6 0 1 0 -15.2 0zM1021.43 470.09 a7.6 7.6 0 1 0 15.2 0 a7.6 7.6 0 1 0 -15.2 0zM1021.43 546.09 a7.6 7.6 0 1 0 15.2 0 a7.6 7.6 0 1 0 -15.2 0zM889.79 470.09 a7.6 7.6 0 1 0 15.2 0 a7.6 7.6 0 1 0 -15.2 0zM1153.07 90.09 a7.6 7.6 0 1 0 15.2 0 a7.6 7.6 0 1 0 -15.2 0zM1218.89 128.09 a7.6 7.6 0 1 0 15.2 0 a7.6 7.6 0 1 0 -15.2 0zM1218.89 204.09 a7.6 7.6 0 1 0 15.2 0 a7.6 7.6 0 1 0 -15.2 0zM1153.07 242.09 a7.6 7.6 0 1 0 15.2 0 a7.6 7.6 0 1 0 -15.2 0zM1087.25 204.09 a7.6 7.6 0 1 0 15.2 0 a7.6 7.6 0 1 0 -15.2 0zM1087.25 128.09 a7.6 7.6 0 1 0 15.2 0 a7.6 7.6 0 1 0 -15.2 0zM1153.07 318.09 a7.6 7.6 0 1 0 15.2 0 a7.6 7.6 0 1 0 -15.2 0zM1087.25 356.09 a7.6 7.6 0 1 0 15.2 0 a7.6 7.6 0 1 0 -15.2 0zM1021.43 318.09 a7.6 7.6 0 1 0 15.2 0 a7.6 7.6 0 1 0 -15.2 0zM1021.43 242.09 a7.6 7.6 0 1 0 15.2 0 a7.6 7.6 0 1 0 -15.2 0zM1218.89 -23.91 a7.6 7.6 0 1 0 15.2 0 a7.6 7.6 0 1 0 -15.2 0zM1284.71 14.09 a7.6 7.6 0 1 0 15.2 0 a7.6 7.6 0 1 0 -15.2 0zM1284.71 90.09 a7.6 7.6 0 1 0 15.2 0 a7.6 7.6 0 1 0 -15.2 0zM1153.07 14.09 a7.6 7.6 0 1 0 15.2 0 a7.6 7.6 0 1 0 -15.2 0zM1350.53 128.09 a7.6 7.6 0 1 0 15.2 0 a7.6 7.6 0 1 0 -15.2 0zM1350.53 204.09 a7.6 7.6 0 1 0 15.2 0 a7.6 7.6 0 1 0 -15.2 0zM1284.71 242.09 a7.6 7.6 0 1 0 15.2 0 a7.6 7.6 0 1 0 -15.2 0zM1284.71 318.09 a7.6 7.6 0 1 0 15.2 0 a7.6 7.6 0 1 0 -15.2 0zM1350.53 356.09 a7.6 7.6 0 1 0 15.2 0 a7.6 7.6 0 1 0 -15.2 0zM1350.53 432.09 a7.6 7.6 0 1 0 15.2 0 a7.6 7.6 0 1 0 -15.2 0zM1284.71 470.09 a7.6 7.6 0 1 0 15.2 0 a7.6 7.6 0 1 0 -15.2 0zM1218.89 432.09 a7.6 7.6 0 1 0 15.2 0 a7.6 7.6 0 1 0 -15.2 0zM1218.89 356.09 a7.6 7.6 0 1 0 15.2 0 a7.6 7.6 0 1 0 -15.2 0zM1416.35 318.09 a7.6 7.6 0 1 0 15.2 0 a7.6 7.6 0 1 0 -15.2 0zM1482.17 356.09 a7.6 7.6 0 1 0 15.2 0 a7.6 7.6 0 1 0 -15.2 0zM1482.17 432.09 a7.6 7.6 0 1 0 15.2 0 a7.6 7.6 0 1 0 -15.2 0zM1416.35 470.09 a7.6 7.6 0 1 0 15.2 0 a7.6 7.6 0 1 0 -15.2 0zM1416.35 546.09 a7.6 7.6 0 1 0 15.2 0 a7.6 7.6 0 1 0 -15.2 0zM1350.53 584.09 a7.6 7.6 0 1 0 15.2 0 a7.6 7.6 0 1 0 -15.2 0zM1284.71 546.09 a7.6 7.6 0 1 0 15.2 0 a7.6 7.6 0 1 0 -15.2 0z" fill="rgba(209, 213, 219, 0.06274509803921569)"></path><path d="M46.1 327.23L185.53 407.73L185.53 568.73L46.1 649.23L-93.33 568.73L-93.33 407.73zM743.27 85.73L882.7 166.23L882.7 327.23L743.27 407.73L603.84 327.23L603.84 166.23zM743.27 568.73L882.7 649.23L882.7 810.23L743.27 890.73L603.84 810.23L603.84 649.23zM882.7 -155.77L1022.14 -75.27L1022.14 85.73L882.7 166.23L743.27 85.73L743.27 -75.27zM1301.01 85.73L1440.44 166.23L1440.44 327.23L1301.01 407.73L1161.57 327.23L1161.57 166.23z" stroke="rgba(209, 213, 219, 0.3137254901960784)" stroke-width="2"></path></g><defs><mask id="SvgjsMask1563"><rect width="1440" height="750" fill="#ffffff"></rect></mask></defs></svg>