<svg xmlns="http://www.w3.org/2000/svg" version="1.1" xmlns:xlink="http://www.w3.org/1999/xlink" xmlns:svgjs="http://svgjs.com/svgjs" width="1440" height="750" preserveAspectRatio="none" viewBox="0 0 1440 750"><g mask="url(&quot;#SvgjsMask1539&quot;)" fill="none"><rect width="1440" height="750" x="0" y="0" fill="rgba(27, 27, 27, 1)"></rect><path d="M94.02 551.9L159.84 589.9L159.84 665.9L94.02 703.9L28.2 665.9L28.2 589.9zM94.02 779.9L159.84 817.9L159.84 893.9L94.02 931.9L28.2 893.9L28.2 817.9zM225.66 323.9L291.48 361.9L291.48 437.9L225.66 475.9L159.84 437.9L159.84 361.9zM357.3 551.9L423.12 589.9L423.12 665.9L357.3 703.9L291.48 665.9L291.48 589.9zM488.94 323.9L554.76 361.9L554.76 437.9L488.94 475.9L423.12 437.9L423.12 361.9zM554.76 209.9L620.58 247.9L620.58 323.9L554.76 361.9L488.94 323.9L488.94 247.9zM620.58 323.9L686.4 361.9L686.4 437.9L620.58 475.9L554.76 437.9L554.76 361.9zM1015.5 551.9L1081.32 589.9L1081.32 665.9L1015.5 703.9L949.68 665.9L949.68 589.9zM1015.5 779.9L1081.32 817.9L1081.32 893.9L1015.5 931.9L949.68 893.9L949.68 817.9zM1147.14 323.9L1212.96 361.9L1212.96 437.9L1147.14 475.9L1081.32 437.9L1081.32 361.9zM1278.78 323.9L1344.6 361.9L1344.6 437.9L1278.78 475.9L1212.96 437.9L1212.96 361.9zM1410.42 95.9L1476.24 133.9L1476.24 209.9L1410.42 247.9L1344.6 209.9L1344.6 133.9zM1410.42 779.9L1476.24 817.9L1476.24 893.9L1410.42 931.9L1344.6 893.9L1344.6 817.9z" stroke="rgba(209, 213, 219, 0.06274509803921569)" stroke-width="2"></path><path d="M86.42 551.9 a7.6 7.6 0 1 0 15.2 0 a7.6 7.6 0 1 0 -15.2 0zM152.24 589.9 a7.6 7.6 0 1 0 15.2 0 a7.6 7.6 0 1 0 -15.2 0zM152.24 665.9 a7.6 7.6 0 1 0 15.2 0 a7.6 7.6 0 1 0 -15.2 0zM86.42 703.9 a7.6 7.6 0 1 0 15.2 0 a7.6 7.6 0 1 0 -15.2 0zM20.6 665.9 a7.6 7.6 0 1 0 15.2 0 a7.6 7.6 0 1 0 -15.2 0zM20.6 589.9 a7.6 7.6 0 1 0 15.2 0 a7.6 7.6 0 1 0 -15.2 0zM86.42 779.9 a7.6 7.6 0 1 0 15.2 0 a7.6 7.6 0 1 0 -15.2 0zM152.24 817.9 a7.6 7.6 0 1 0 15.2 0 a7.6 7.6 0 1 0 -15.2 0zM152.24 893.9 a7.6 7.6 0 1 0 15.2 0 a7.6 7.6 0 1 0 -15.2 0zM86.42 931.9 a7.6 7.6 0 1 0 15.2 0 a7.6 7.6 0 1 0 -15.2 0zM20.6 893.9 a7.6 7.6 0 1 0 15.2 0 a7.6 7.6 0 1 0 -15.2 0zM20.6 817.9 a7.6 7.6 0 1 0 15.2 0 a7.6 7.6 0 1 0 -15.2 0zM218.06 323.9 a7.6 7.6 0 1 0 15.2 0 a7.6 7.6 0 1 0 -15.2 0zM283.88 361.9 a7.6 7.6 0 1 0 15.2 0 a7.6 7.6 0 1 0 -15.2 0zM283.88 437.9 a7.6 7.6 0 1 0 15.2 0 a7.6 7.6 0 1 0 -15.2 0zM218.06 475.9 a7.6 7.6 0 1 0 15.2 0 a7.6 7.6 0 1 0 -15.2 0zM152.24 437.9 a7.6 7.6 0 1 0 15.2 0 a7.6 7.6 0 1 0 -15.2 0zM152.24 361.9 a7.6 7.6 0 1 0 15.2 0 a7.6 7.6 0 1 0 -15.2 0zM349.7 551.9 a7.6 7.6 0 1 0 15.2 0 a7.6 7.6 0 1 0 -15.2 0zM415.52 589.9 a7.6 7.6 0 1 0 15.2 0 a7.6 7.6 0 1 0 -15.2 0zM415.52 665.9 a7.6 7.6 0 1 0 15.2 0 a7.6 7.6 0 1 0 -15.2 0zM349.7 703.9 a7.6 7.6 0 1 0 15.2 0 a7.6 7.6 0 1 0 -15.2 0zM283.88 665.9 a7.6 7.6 0 1 0 15.2 0 a7.6 7.6 0 1 0 -15.2 0zM283.88 589.9 a7.6 7.6 0 1 0 15.2 0 a7.6 7.6 0 1 0 -15.2 0zM481.34 323.9 a7.6 7.6 0 1 0 15.2 0 a7.6 7.6 0 1 0 -15.2 0zM547.16 361.9 a7.6 7.6 0 1 0 15.2 0 a7.6 7.6 0 1 0 -15.2 0zM547.16 437.9 a7.6 7.6 0 1 0 15.2 0 a7.6 7.6 0 1 0 -15.2 0zM481.34 475.9 a7.6 7.6 0 1 0 15.2 0 a7.6 7.6 0 1 0 -15.2 0zM415.52 437.9 a7.6 7.6 0 1 0 15.2 0 a7.6 7.6 0 1 0 -15.2 0zM415.52 361.9 a7.6 7.6 0 1 0 15.2 0 a7.6 7.6 0 1 0 -15.2 0zM547.16 209.9 a7.6 7.6 0 1 0 15.2 0 a7.6 7.6 0 1 0 -15.2 0zM612.98 247.9 a7.6 7.6 0 1 0 15.2 0 a7.6 7.6 0 1 0 -15.2 0zM612.98 323.9 a7.6 7.6 0 1 0 15.2 0 a7.6 7.6 0 1 0 -15.2 0zM481.34 247.9 a7.6 7.6 0 1 0 15.2 0 a7.6 7.6 0 1 0 -15.2 0zM678.8 361.9 a7.6 7.6 0 1 0 15.2 0 a7.6 7.6 0 1 0 -15.2 0zM678.8 437.9 a7.6 7.6 0 1 0 15.2 0 a7.6 7.6 0 1 0 -15.2 0zM612.98 475.9 a7.6 7.6 0 1 0 15.2 0 a7.6 7.6 0 1 0 -15.2 0zM1007.9 551.9 a7.6 7.6 0 1 0 15.2 0 a7.6 7.6 0 1 0 -15.2 0zM1073.72 589.9 a7.6 7.6 0 1 0 15.2 0 a7.6 7.6 0 1 0 -15.2 0zM1073.72 665.9 a7.6 7.6 0 1 0 15.2 0 a7.6 7.6 0 1 0 -15.2 0zM1007.9 703.9 a7.6 7.6 0 1 0 15.2 0 a7.6 7.6 0 1 0 -15.2 0zM942.08 665.9 a7.6 7.6 0 1 0 15.2 0 a7.6 7.6 0 1 0 -15.2 0zM942.08 589.9 a7.6 7.6 0 1 0 15.2 0 a7.6 7.6 0 1 0 -15.2 0zM1007.9 779.9 a7.6 7.6 0 1 0 15.2 0 a7.6 7.6 0 1 0 -15.2 0zM1073.72 817.9 a7.6 7.6 0 1 0 15.2 0 a7.6 7.6 0 1 0 -15.2 0zM1073.72 893.9 a7.6 7.6 0 1 0 15.2 0 a7.6 7.6 0 1 0 -15.2 0zM1007.9 931.9 a7.6 7.6 0 1 0 15.2 0 a7.6 7.6 0 1 0 -15.2 0zM942.08 893.9 a7.6 7.6 0 1 0 15.2 0 a7.6 7.6 0 1 0 -15.2 0zM942.08 817.9 a7.6 7.6 0 1 0 15.2 0 a7.6 7.6 0 1 0 -15.2 0zM1139.54 323.9 a7.6 7.6 0 1 0 15.2 0 a7.6 7.6 0 1 0 -15.2 0zM1205.36 361.9 a7.6 7.6 0 1 0 15.2 0 a7.6 7.6 0 1 0 -15.2 0zM1205.36 437.9 a7.6 7.6 0 1 0 15.2 0 a7.6 7.6 0 1 0 -15.2 0zM1139.54 475.9 a7.6 7.6 0 1 0 15.2 0 a7.6 7.6 0 1 0 -15.2 0zM1073.72 437.9 a7.6 7.6 0 1 0 15.2 0 a7.6 7.6 0 1 0 -15.2 0zM1073.72 361.9 a7.6 7.6 0 1 0 15.2 0 a7.6 7.6 0 1 0 -15.2 0zM1271.18 323.9 a7.6 7.6 0 1 0 15.2 0 a7.6 7.6 0 1 0 -15.2 0zM1337 361.9 a7.6 7.6 0 1 0 15.2 0 a7.6 7.6 0 1 0 -15.2 0zM1337 437.9 a7.6 7.6 0 1 0 15.2 0 a7.6 7.6 0 1 0 -15.2 0zM1271.18 475.9 a7.6 7.6 0 1 0 15.2 0 a7.6 7.6 0 1 0 -15.2 0zM1402.82 95.9 a7.6 7.6 0 1 0 15.2 0 a7.6 7.6 0 1 0 -15.2 0zM1468.64 133.9 a7.6 7.6 0 1 0 15.2 0 a7.6 7.6 0 1 0 -15.2 0zM1468.64 209.9 a7.6 7.6 0 1 0 15.2 0 a7.6 7.6 0 1 0 -15.2 0zM1402.82 247.9 a7.6 7.6 0 1 0 15.2 0 a7.6 7.6 0 1 0 -15.2 0zM1337 209.9 a7.6 7.6 0 1 0 15.2 0 a7.6 7.6 0 1 0 -15.2 0zM1337 133.9 a7.6 7.6 0 1 0 15.2 0 a7.6 7.6 0 1 0 -15.2 0zM1402.82 779.9 a7.6 7.6 0 1 0 15.2 0 a7.6 7.6 0 1 0 -15.2 0zM1468.64 817.9 a7.6 7.6 0 1 0 15.2 0 a7.6 7.6 0 1 0 -15.2 0zM1468.64 893.9 a7.6 7.6 0 1 0 15.2 0 a7.6 7.6 0 1 0 -15.2 0zM1402.82 931.9 a7.6 7.6 0 1 0 15.2 0 a7.6 7.6 0 1 0 -15.2 0zM1337 893.9 a7.6 7.6 0 1 0 15.2 0 a7.6 7.6 0 1 0 -15.2 0zM1337 817.9 a7.6 7.6 0 1 0 15.2 0 a7.6 7.6 0 1 0 -15.2 0z" fill="rgba(209, 213, 219, 0.06274509803921569)"></path><path d="M3.16 -79.18L142.59 1.32L142.59 162.32L3.16 242.82L-136.27 162.32L-136.27 1.32zM142.59 162.32L282.03 242.82L282.03 403.82L142.59 484.32L3.16 403.82L3.16 242.82zM421.46 162.32L560.9 242.82L560.9 403.82L421.46 484.32L282.03 403.82L282.03 242.82zM282.03 403.82L421.46 484.32L421.46 645.32L282.03 725.82L142.59 645.32L142.59 484.32zM700.33 645.32L839.76 725.82L839.76 886.82L700.33 967.32L560.9 886.82L560.9 725.82zM979.2 162.32L1118.63 242.82L1118.63 403.82L979.2 484.32L839.76 403.82L839.76 242.82z" stroke="rgba(209, 213, 219, 0.4392156862745098)" stroke-width="2"></path></g><defs><mask id="SvgjsMask1539"><rect width="1440" height="750" fill="#ffffff"></rect></mask></defs></svg>